# xmcd
#
# Track frame offsets:
#	150
#	14851
#	25369
#	34386
#	46622
#	60774
#	80607
#	99759
#	106284
#	117324
#	128217
#	133844
#	138362
#
# Disc length: 2147 seconds
#
# Revision: 1
# Processed by: cddbd v1.5.2PL0 Copyright (c) Steve Scherf et al.
# Submitted via: audiograbber 1.83.01
#
DISCID=ab08610d
DTITLE=Ry Cooder - Soundtracks [CD 1) - The Long Riders [1980]
DYEAR=2014
DGENRE=Soundtrack
TTITLE0=The Long Riders
TTITLE1=I'm A Good Old Rebel
TTITLE2=Seneca Square Dance
TTITLE3=Archie's Funeral (Hold To God's Unchanging Hand)
TTITLE4=I Always Knew That You Were The One
TTITLE5=Rally 'Round The Flag
TTITLE6=Wildwood Boys
TTITLE7=Better Things To Think About
TTITLE8=My Grandfather
TTITLE9=Cole Younger Polka
TTITLE10=Escape From Northfield
TTITLE11=Leaving Missouri
TTITLE12=Jesse James
EXTD=
EXTT0=
EXTT1=
EXTT2=
EXTT3=
EXTT4=
EXTT5=
EXTT6=
EXTT7=
EXTT8=
EXTT9=
EXTT10=
EXTT11=
EXTT12=
PLAYORDER=
